<?xml version="1.0" encoding="UTF-8"?>
<svg xmlns="http://www.w3.org/2000/svg" xmlns:xlink="http://www.w3.org/1999/xlink" width="30pt" height="30pt" viewBox="0 0 30 30" version="1.1">
<defs>
<filter id="alpha" filterUnits="objectBoundingBox" x="0%" y="0%" width="100%" height="100%">
  <feColorMatrix type="matrix" in="SourceGraphic" values="0 0 0 0 1 0 0 0 0 1 0 0 0 0 1 0 0 0 1 0"/>
</filter>
<mask id="mask0">
  <g filter="url(#alpha)">
<rect x="0" y="0" width="30" height="30" style="fill:rgb(0%,0%,0%);fill-opacity:0.403922;stroke:none;"/>
  </g>
</mask>
<linearGradient id="linear0" gradientUnits="userSpaceOnUse" x1="302.86" y1="366.65" x2="302.86" y2="609.51" gradientTransform="matrix(0.0410472,0,0,0.0256898,0.183651,13.705957)">
<stop offset="0" style="stop-color:rgb(0%,0%,0%);stop-opacity:0;"/>
<stop offset="0.5" style="stop-color:rgb(0%,0%,0%);stop-opacity:1;"/>
<stop offset="1" style="stop-color:rgb(0%,0%,0%);stop-opacity:0;"/>
</linearGradient>
<clipPath id="clip1">
  <rect x="0" y="0" width="30" height="30"/>
</clipPath>
<g id="surface5" clip-path="url(#clip1)">
<path style=" stroke:none;fill-rule:nonzero;fill:url(#linear0);" d="M 5.109375 23.125 L 24.929688 23.125 L 24.929688 29.363281 L 5.109375 29.363281 Z M 5.109375 23.125 "/>
</g>
<mask id="mask1">
  <g filter="url(#alpha)">
<rect x="0" y="0" width="30" height="30" style="fill:rgb(0%,0%,0%);fill-opacity:0.403922;stroke:none;"/>
  </g>
</mask>
<radialGradient id="radial0" gradientUnits="userSpaceOnUse" cx="605.71" cy="486.65" fx="605.71" fy="486.65" r="117.14" gradientTransform="matrix(0.0410472,0,0,0.0256898,0.192528,13.705957)">
<stop offset="0" style="stop-color:rgb(0%,0%,0%);stop-opacity:1;"/>
<stop offset="1" style="stop-color:rgb(0%,0%,0%);stop-opacity:0;"/>
</radialGradient>
<clipPath id="clip2">
  <rect x="0" y="0" width="30" height="30"/>
</clipPath>
<g id="surface8" clip-path="url(#clip2)">
<path style=" stroke:none;fill-rule:nonzero;fill:url(#radial0);" d="M 24.929688 23.125 L 24.929688 29.363281 C 27.042969 29.375 30.039062 27.964844 30.039062 26.246094 C 30.039062 24.523438 27.679688 23.125 24.929688 23.125 Z M 24.929688 23.125 "/>
</g>
<mask id="mask2">
  <g filter="url(#alpha)">
<rect x="0" y="0" width="30" height="30" style="fill:rgb(0%,0%,0%);fill-opacity:0.403922;stroke:none;"/>
  </g>
</mask>
<radialGradient id="radial1" gradientUnits="userSpaceOnUse" cx="605.71" cy="486.65" fx="605.71" fy="486.65" r="117.14" gradientTransform="matrix(-0.0410472,0,0,0.0256898,29.847034,13.705957)">
<stop offset="0" style="stop-color:rgb(0%,0%,0%);stop-opacity:1;"/>
<stop offset="1" style="stop-color:rgb(0%,0%,0%);stop-opacity:0;"/>
</radialGradient>
<clipPath id="clip3">
  <rect x="0" y="0" width="30" height="30"/>
</clipPath>
<g id="surface11" clip-path="url(#clip3)">
<path style=" stroke:none;fill-rule:nonzero;fill:url(#radial1);" d="M 5.109375 23.125 L 5.109375 29.363281 C 2.996094 29.375 0 27.964844 0 26.246094 C 0 24.523438 2.359375 23.125 5.109375 23.125 Z M 5.109375 23.125 "/>
</g>
<linearGradient id="linear1" gradientUnits="userSpaceOnUse" x1="12.487" y1="3.7319" x2="31.081" y2="36.033" gradientTransform="matrix(1.2114,0,0,1.2114,-2.0214,0.18989)">
<stop offset="0" style="stop-color:rgb(82.352941%,82.352941%,82.352941%);stop-opacity:1;"/>
<stop offset="1" style="stop-color:rgb(92.941176%,92.941176%,92.941176%);stop-opacity:1;"/>
</linearGradient>
<radialGradient id="radial2" gradientUnits="userSpaceOnUse" cx="26.728" cy="38.349" fx="26.728" fy="38.349" r="17.926" gradientTransform="matrix(1.8485,-0,0,1.2891,-21.299,-13.682)">
<stop offset="0" style="stop-color:rgb(94.901961%,94.901961%,94.901961%);stop-opacity:1;"/>
<stop offset="1" style="stop-color:rgb(81.568627%,81.568627%,81.568627%);stop-opacity:1;"/>
</radialGradient>
<linearGradient id="linear2" gradientUnits="userSpaceOnUse" x1="28.107" y1="34.869" x2="22.169" y2="9.8662" gradientTransform="matrix(1,0,0,1,-0.000000000000000111,0.88388)">
<stop offset="0" style="stop-color:rgb(100%,100%,100%);stop-opacity:0.615686;"/>
<stop offset="1" style="stop-color:rgb(57.647059%,57.647059%,57.647059%);stop-opacity:0.615686;"/>
</linearGradient>
</defs>
<g id="surface1">
<use xlink:href="#surface5" mask="url(#mask0)"/>
<use xlink:href="#surface8" mask="url(#mask1)"/>
<use xlink:href="#surface11" mask="url(#mask2)"/>
<path style="fill-rule:nonzero;fill:url(#linear1);stroke-width:0.99235;stroke-linecap:butt;stroke-linejoin:miter;stroke:rgb(39.215686%,39.215686%,39.215686%);stroke-opacity:1;stroke-miterlimit:4;" d="M 45.343637 39.901739 C 45.343637 41.843777 43.767695 43.41857 41.833304 43.41857 L 6.334441 43.41857 C 4.400049 43.41857 2.824108 41.843777 2.824108 39.901739 L 2.824108 7.092507 C 2.824108 5.156694 4.400049 3.5819 6.334441 3.5819 L 41.833304 3.5819 C 43.767695 3.5819 45.343637 5.156694 45.343637 7.092507 Z M 45.343637 39.901739 " transform="matrix(0.632063,0,0,0.627563,-0.222513,-0.0603663)"/>
<path style="fill-rule:nonzero;fill:url(#radial2);stroke-width:0.99794;stroke-linecap:butt;stroke-linejoin:miter;stroke:url(#linear2);stroke-miterlimit:4;" d="M 41.46906 35.252465 L 6.615445 35.252465 L 6.615445 11.250065 L 41.46906 11.250065 Z M 41.46906 35.252465 " transform="matrix(0.627625,0,0,0.624938,-0.0895187,0.156913)"/>
<path style="fill:none;stroke-width:0.9967;stroke-linecap:butt;stroke-linejoin:miter;stroke:rgb(100%,100%,100%);stroke-opacity:0.858824;stroke-miterlimit:4;" d="M 44.479594 39.326294 C 44.479594 41.186004 43.497105 42.346763 41.637837 42.346763 L 6.616446 42.346763 C 4.757178 42.346763 3.687633 41.273373 3.687633 39.419903 L 3.687633 7.598885 C 3.687633 5.739174 5.198677 4.403677 7.057944 4.403677 L 41.196339 4.403677 C 43.055606 4.403677 44.479594 5.739174 44.479594 7.598885 Z M 44.479594 39.326294 " transform="matrix(0.628188,0,0,0.625938,-0.129025,0.0560731)"/>
<path style="fill-rule:nonzero;fill:rgb(80%,0%,0%);fill-opacity:1;stroke-width:2.6402;stroke-linecap:round;stroke-linejoin:round;stroke:rgb(80%,0%,0%);stroke-opacity:1;stroke-miterlimit:4;" d="M 11.318456 9.224854 C 16.644475 14.689156 22.769397 19.122767 29.210551 22.93469 L 27.437985 24.161704 C 21.105016 20.047117 15.054991 15.498986 9.188048 10.648191 Z M 11.318456 9.224854 " transform="matrix(0.469394,0,0,0.477531,6.28875,6.364375)"/>
<path style="fill-rule:nonzero;fill:rgb(80%,0%,0%);fill-opacity:1;stroke-width:2.6402;stroke-linecap:round;stroke-linejoin:round;stroke:rgb(80%,0%,0%);stroke-opacity:1;stroke-miterlimit:4;" d="M 26.738945 8.922191 C 21.870631 15.957071 15.246395 21.077809 7.906475 25.282377 L 10.086814 23.523657 C 8.722022 24.382567 25.573879 11.801584 23.851244 10.206466 Z M 26.738945 8.922191 " transform="matrix(0.469394,0,0,0.477531,6.28875,6.364375)"/>
</g>
</svg>
